<?xml version="1.0" encoding="UTF-8" standalone="no"?>
<!-- Created with Inkscape (http://www.inkscape.org/) -->

<svg
   width="19"
   height="24"
   viewBox="0 0 36.127171 45.969887"
   version="1.1"
   id="svg1"
   xml:space="preserve"
   xmlns="http://www.w3.org/2000/svg"
   xmlns:svg="http://www.w3.org/2000/svg"><defs
     id="defs1" /><g
     id="layer1"
     transform="translate(-86.975998,-125.44631)"><g
       id="layer1-5"
       transform="translate(0.05352411,0.0583061)"><path
         style="display:inline;fill:#333333;fill-opacity:1;stroke-width:0.264583"
         d="m 86.922474,128.24189 v 40.60547 c 0,0 0.145021,2.55457 3.324294,2.50995 3.179275,-0.0446 30.092902,0 30.092902,0 0,0 2.61883,-0.50274 2.68193,-2.33276 0.0631,-1.83003 0,-34.17092 0,-34.17092 l -9.44985,-9.44985 H 89.923457 c 0,0 -2.972964,0.26503 -3.000983,2.83811 z"
         id="path4" /><path
         style="display:inline;fill:#36a7f8;fill-opacity:1;stroke-width:0.264583"
         d="m 123.0216,134.85363 -9.46563,-9.46563 v 7.16233 c 0,0 0.53638,2.24019 2.58727,2.3033 2.05088,0.0631 6.87836,0 6.87836,0 z"
         id="path5" /><path
         style="display:inline;fill:#36a7f8;fill-opacity:1;stroke-width:0.264583"
         d="m 99.893918,148.45258 c 0.004,0.30702 0.03574,0.61368 0.09465,0.91502 0.149412,0.76433 0.476082,1.49337 0.946572,2.11398 0.87522,1.15447 2.25868,1.90864 3.70321,2.01872 1.44454,0.11007 2.92631,-0.42578 3.9663,-1.43436 1.03999,-1.00858 1.62101,-2.47324 1.55521,-3.92047 -0.0658,-1.44723 -0.77737,-2.85313 -1.90464,-3.76311 -0.75408,-0.60872 -1.68363,-0.99747 -2.64655,-1.1068 -0.96293,-0.10933 -1.95597,0.0611 -2.82733,0.48529 -0.87135,0.42416 -1.61807,1.10062 -2.12601,1.92596 -0.50793,0.82533 -0.775367,1.79676 -0.761416,2.76577 z"
         id="path6" /></g></g></svg>
